<svg xmlns="http://www.w3.org/2000/svg" viewBox="0 0 174 118" preserveAspectRatio="xMidYMid meet"><path fill="#002150" d="M79.105 1.117a84 84 0 0 1 4.942 2.79C86.063 5.243 86.063 5.243 89 5a127 127 0 0 0 4.25-2.5C99.871-.888 106.727-1.249 114 0c4.945 1.65 9.654 3.88 13 8-.562 2.313-.562 2.313-2 4-1.855-.766-1.855-.766-4-2-7.406-4.123-12.92-6.052-21.312-3.75-3.234.995-5.77 1.852-7.688 4.75.519 2.132.519 2.132 1.813 4.188l1.207 2.167L96 19l-2.062-.5c-4.716-.803-9.32-.978-13.938.5l3-9c-3.514-3.564-8.77-4.755-13.598-5.102-5.527.234-11.108 1.655-15.277 5.415L52 12c-2.437-.5-2.437-.5-4-2 1.172-3.44 2.866-4.874 5.938-6.687l2.09-1.262c6.51-3.468 16.184-3.414 23.077-.934"/><path fill="#002151" d="M52.554 26.202c3.174-.42 6.252-.424 9.446-.264l2.022.085c1.961.113 3.9.287 5.853.504l1.857.192c1.698.269 1.698.269 4.268 1.281.697 2.603.697 2.603 0 5-2.111.266-2.111.266-5.031-.18-9.073-1.253-9.073-1.253-17.969.18-2.819 3.755-2.722 7.728-2.482 12.262.469 2.661.98 4.49 2.482 6.738 6.52 3.13 15.845.066 22.383-1.996C77.68 49.122 79.817 48.129 82 47l3-1c.939 2.27.939 2.27 1 5-6.096 5.84-16.554 6.697-24.625 7.063l-1.905.098c-4.19.115-7.674-.19-11.47-2.161-4.042-6.459-4.17-14.377-2.844-21.746 1.116-4.41 2.717-6.964 7.398-8.052"/><path fill="#002151" d="M99 28c2.24-.882 3.778-1.23 6.125-1.473l1.891-.21c1.995-.182 3.982-.295 5.984-.38l1.98-.098c4.444-.118 7.994.188 12.02 2.161 4.126 6.431 4.155 14.378 2.805 21.746C129.153 52.288 128.44 53.7 127 56c-4.394 2.28-8.554 2.313-13.375 2.063l-1.892-.086C104.069 57.507 94.912 56.297 89 51c.061-2.164.061-2.164 1-4 3.208 0 4.208.536 7 1.938 7.162 2.822 15.477 5.046 23.195 3.928 1.951-.748 1.951-.748 3.032-2.701 1.747-5.091 1.882-10.19.169-15.306-1.279-2.061-1.279-2.061-3.737-2.683-6.227-.58-12.385.15-18.548 1.09L99 33c-.697-2.397-.697-2.397 0-5"/><path fill="#002150" d="M26.105 66.766C27.75 67.75 27.75 67.75 30 70c.375 2.25.375 2.25 0 4l-1.687-.875L26 72l-2.312-1.125c-4.963-1.616-8.82-1.588-13.438.75C6.788 73.85 5.297 76.032 4 80c-.84 5.154.023 8.93 2.54 13.457 4.39 4.637 10.662 5.548 16.72 6.176 2.001.127 2.001.127 4.74-.633 1.706-3.362 1.661-5.574 1.29-9.305L28 87c-3.35-.854-5.955-.568-9.375-.129L16 87v-3c4.42-1.247 8.904-1.878 13.444-.9 2.215 1.281 2.517 2.488 3.22 4.92.707 4.81.971 9.72-1.664 13.98-5.486 2.841-13.27 1.628-19 0-4.813-2.293-8.983-4.946-11.371-9.852C-.965 86.704-1.077 80.94.883 75.59c5.24-9.282 15.05-12.523 25.222-8.824"/><path fill="#002150" d="M158 66c2.91 3.21 4.456 6.95 6.137 10.883l.861 1.986q.894 2.07 1.783 4.14 1.364 3.178 2.744 6.346.87 2.014 1.737 4.028l.833 1.919C174 99.769 174 99.769 174 102c-1.812-.125-1.812-.125-4-1-3-5.036-3-5.036-3-8-2.888-.477-5.833-.223-8.75-.125l-2.5-.031c-2.499.088-4.42.236-6.75 1.156-1.463 2.08-2.276 3.972-3.06 6.387L145 102c-2.104-.258-2.104-.258-4-1q3.387-7.238 6.781-14.471 1.155-2.463 2.308-4.927 1.653-3.535 3.313-7.067l1.045-2.238.97-2.062.855-1.824C157 67 157 67 158 66m0 8a195 195 0 0 0-3.562 6.875l-.999 1.973c-.31.625-.622 1.25-.943 1.894l-.87 1.746c-.754 1.547-.754 1.547-.626 3.512a78 78 0 0 0 7 .125l2.023-.027c1.66-.024 3.318-.06 4.977-.098-1.746-5.46-3.568-10.804-6-16z"/><path fill="#002150" d="M43.46 64.247c6.816-1.7 15.036-.939 21.54 1.753v3c-1.928.118-1.928.118-4.594-.2-8.26-.902-8.26-.902-16.406.2-1.986 2.157-2.279 4.121-2.312 7 .167 2.77.548 4.81 2.312 7 4.553 1.683 9.85.613 14.531-.118L60 83v3c-1.469.134-1.469.134-3.5-.164-6.31-.828-6.31-.828-12.5.164-2.181 3.492-2.72 6.07-1.957 10.117 1.602 3.038 1.602 3.038 4.088 3.45 5.67.414 11.303-.07 16.941-.701L65 99v3c-6.504 2.692-14.724 3.454-21.54 1.753-3.662-2.61-4.17-5.461-4.898-9.78-2.886-24.18-2.886-24.18 4.899-29.726"/><path fill="#002150" d="M72 66c2.415-.32 4.577-.42 7-.398l2.152-.01q2.26-.002 4.52.017c2.318.016 4.635 0 6.953-.02q2.188.004 4.375.013l2.121-.019c1.942.029 1.942.029 4.879.417v3c-1.653-.156-3.307-.328-4.948-.578-3.422-.452-5.694-.406-9.052.578-1.913 5.404-1.121 10.868-.625 16.5q.232 3.529.406 7.062.117 2.206.313 4.407c.138 2.002.138 2.002-.094 5.031l-2 .902-2-.902c-.195-2.542-.124-4.699.102-7.219q.12-2.256.23-4.511c.137-2.395.294-4.782.504-7.17.62-7.16.62-7.16-.836-14.1-3.954-1.158-6.94-.9-10.96-.287L72 69z"/><path fill="#002150" d="M110 66c2.345-.32 4.429-.42 6.781-.398l2.085-.01q2.19-.002 4.379.017c2.246.016 4.49 0 6.735-.02q2.12.004 4.239.013l2.055-.019c1.88.029 1.88.029 4.726.417v3c-1.652-.156-3.305-.328-4.945-.578-3.423-.452-5.695-.405-9.055.578-1.94 5.402-1.166 10.86-.687 16.5q.21 3.53.374 7.062.112 2.206.294 4.407c.137 2.002.137 2.002.019 5.031h-3c-.097-2.485-.004-4.751.2-7.219q.114-2.255.22-4.511c.124-2.395.268-4.781.471-7.17.599-7.164.599-7.164-.891-14.1-3.956-1.157-6.94-.901-10.962-.287L110 69z"/><path fill="#003c00" d="M92 23c1.5 1.125 1.5 1.125 2 3-.022 3.12-.218 5.958-2.125 8.5-3.066.817-5.854.383-8.875-.5-1.5-1.125-1.5-1.125-2-3 .022-3.12.218-5.958 2.125-8.5 3.066-.817 5.854-.383 8.875.5"/><path fill="#003b00" d="M128 108c2.938-.937 2.938-.937 6 0 1.252 3.31 1 6.493 1 10l-1.937-1.125L131 116l-1 2h-2c-.627-3.375-.696-6.636 0-10m2 2v3l3-1v-2z"/><path fill="#003c00" d="M10 108c2.39-1.107 4.543-.878 7 0v2h-5v2h4v2h-4v2h5v2c-2.457.878-4.61 1.107-7 0-1.102-3.463-1.102-6.537 0-10"/><path fill="#003c00" d="M145 109c1 1 1 1 1.188 3.938C146 116 146 116 144 118c-2.499.277-4.69.002-7-1-1.125-2.875-1.125-2.875-1-6 2.204-4.02 5.01-3.041 9-2m-6 1c-1.17 2.349-1.17 2.349-1 5 1.651 1.742 1.651 1.742 4 2 2.01-1.596 2.01-1.596 3-4-.428-1.851-.428-1.851-2-3-2.044-.667-2.044-.667-4 0"/><path fill="#003b00" d="M51 108c2.938-.937 2.938-.937 6 0 1.252 3.31 1 6.493 1 10l-3-1-1-2-1 3h-2c-.627-3.375-.696-6.636 0-10m2 2v3l4-2z"/><path fill="#003c00" d="M2 108c2.406.033 4.623.56 7 1-2 2-2 2-4.687 2.438L2 112c.669 3.113.669 3.113 3.063 4.188L7 117v-3l-3-1c2.5-.312 2.5-.312 5 0 .688 2.5.688 2.5 0 5-2.924.455-5.064.312-7.875-.625C0 116 0 116-.312 113 0 110 0 110 2 108"/><path fill="#003c00" d="M93 108v3l-2.5-.062L88 111c-.751 1.91-.751 1.91 0 4 1.934 1.3 1.934 1.3 4 2v-3l-3-1c2.5-.312 2.5-.312 5 0 .688 2.5.688 2.5 0 5-3.174.564-5.123.51-7.937-1.125C85 115 85 115 85.187 111.875L86 109c2.507-1.254 4.23-1.292 7-1"/><path fill="#003c00" d="M166 108c2.875-.75 2.875-.75 6 0 2 2 2 2 2.25 5-.25 3-.25 3-2.25 5-3.125.75-3.125.75-6 0-.928-3.447-.928-6.553 0-10m2 2c-.39 2.355-.218 4.632 0 7 2.619-.597 2.619-.597 5-2 .252-2.659.252-2.659-1-5-2.047-1-2.047-1-4 0"/><path fill="#003c00" d="M63 108c2.875-.75 2.875-.75 6 0 2 2 2 2 2.25 5-.25 3-.25 3-2.25 5-3.125.75-3.125.75-6 0-.928-3.447-.928-6.553 0-10m2 2c-.39 2.355-.218 4.632 0 7 2.619-.597 2.619-.597 5-2 .252-2.659.252-2.659-1-5-2.047-1-2.047-1-4 0"/><path fill="#003c00" d="m157 108 5 5 .375-2.5.625-2.5h2c.195 2.188.195 2.188.125 5l-.055 2.813L165 118c-3.4-1.133-4.053-2.125-6-5l-.437 2.5L158 118h-1a88 88 0 0 1-.062-5l.027-2.812z"/><path fill="#003c00" d="M40 108h2c.887 1.426.887 1.426 1.688 3.313l.824 1.863C45 115 45 115 44 118c-3.062-.812-3.062-.812-6-2v2l-2-1c.61-2.066.61-2.066 1.75-4.562l1.11-2.504zm0 4v2l2-1z"/><path fill="#003c00" d="M122 108c2 1 2 1 2.852 3.066l.773 2.496c.26.827.52 1.653.79 2.504L127 118h-2v-2l-7 2q.715-2.22 1.438-4.437l.808-2.497C121 109 121 109 122 108m0 3-1 3h2z"/><path fill="#003b00" d="M96 108c3-.75 3-.75 6 0v2h-5v2h4v2h-4v2h5v2c-3 .75-3 .75-6 0-.938-3.44-.938-6.56 0-10"/><path fill="#003b00" d="M73 108c3-.75 3-.75 6 0v2h-5v2h4v2h-4v2h5v2c-3 .75-3 .75-6 0-.938-3.44-.938-6.56 0-10"/><path fill="#003b00" d="M147 108h2c.195 1.75.195 1.75.125 4l-.055 2.25L149 116c2.02.059 2.02.059 4-1 .65-2.333.78-4.574 1-7h1c.168 1.68.168 1.68.188 3.875l.042 2.18C155 116 155 116 153 118c-4.556-.556-4.556-.556-6-2-.168-1.848-.168-1.848-.187-4.062l-.043-2.223z"/><path fill="#003c00" d="M104 108c1.969-.195 1.969-.195 4.5-.125l2.531.055L113 108l-1 2h-3c-.291 1.83-.291 1.83-.062 4 .152 2.25.152 2.25.062 4h-2c-.108-2.106.073-4.148.223-6.25L107 110h-3z"/><path fill="#003b00" d="M18 108c1.969-.168 1.969-.168 4.5-.187l2.531-.043L27 108v2h-3c-.291 1.83-.291 1.83-.062 4 .152 2.25.152 2.25.062 4h-2c-.055-1.715-.055-1.715.125-3.937.12-2.16.12-2.16-.125-4.063-1.934-1.068-1.934-1.068-4-1z"/><path fill="#003b00" d="M28 108c1.969-.266 1.969-.266 4.5-.25l2.531-.016L37 108v2l-1.988-.125L33 110c-.452 1.822-.452 1.822-.187 4 .085 1.332.154 2.666.187 4h-1c.051-2.09.2-4.165.355-6.25L32 110c-2.008-.167-2.008-.167-4 0z"/><path fill="#003c00" d="M56 110h2l-.562 2.313c-.666 2.777-.666 2.777.562 5.687l-3-1c-.812-1.875-.812-1.875-1-4 .813-1.75.813-1.75 2-3"/><path fill="#003b00" d="m132 108 3 1c-.187 2.5-.187 2.5-1 5l-2 1 .688-2.437L133 110l-3-1z"/><path fill="#003d00" d="m122 108 2 1-1 3-3 1c.875-2.562.875-2.562 2-5"/><path fill="#003d00" d="M142 108c2.25.75 2.25.75 4 2-.75 1.625-.75 1.625-2 3l-1-2c-1.516-1.122-1.516-1.122-3-2z"/><path fill="#003d00" d="m131 113 1 2 3 1v2c-2-.812-2-.812-4-2z"/><path fill="#003d00" d="M60 108h1a79 79 0 0 1 .125 5l.008 2.813L61 118h-1a79 79 0 0 1-.125-5l-.008-2.812z"/></svg>